<?xml version="1.0" standalone="no"?>
<!DOCTYPE svg PUBLIC "-//W3C//DTD SVG 20010904//EN"
 "http://www.w3.org/TR/2001/REC-SVG-20010904/DTD/svg10.dtd">
<svg version="1.0" xmlns="http://www.w3.org/2000/svg"
 width="700.000000pt" height="700.000000pt" viewBox="0 0 700.000000 700.000000"
 preserveAspectRatio="xMidYMid meet">
<metadata>
Created by potrace 1.11, written by Peter Selinger 2001-2013
</metadata>
<g transform="translate(0.000000,700.000000) scale(0.100000,-0.100000)"
fill="#000000" stroke="none">
<path d="M2165 5830 c-38 -4 -84 -14 -102 -23 -172 -91 -163 -341 16 -420 42
-18 71 -20 400 -23 196 -1 721 -6 1166 -9 446 -4 934 -8 1085 -10 241 -2 281
0 322 15 111 41 170 157 144 280 -16 74 -110 155 -191 165 -27 3 -297 7 -600
10 -302 2 -912 7 -1355 11 -443 3 -807 7 -810 8 -3 1 -36 -1 -75 -4z"/>
<path d="M23 3722 l-23 -3 0 -232 0 -232 3500 0 3500 0 0 233 c0 214 -1 232
-17 233 -78 2 -6943 3 -6960 1z"/>
<path d="M2127 1638 c-22 -4 -56 -20 -77 -35 -152 -110 -124 -340 50 -407 41
-16 109 -18 760 -21 1554 -8 2150 -6 2191 6 49 15 114 80 135 136 25 65 15
162 -22 211 -37 48 -50 59 -104 84 -44 21 -57 21 -940 25 -492 2 -1134 5
-1425 6 -292 2 -547 -1 -568 -5z"/>
</g>
</svg>
